<?xml version="1.0" encoding="utf-8"?>
<!-- Generator: Adobe Illustrator 19.2.0, SVG Export Plug-In . SVG Version: 6.00 Build 0)  -->
<svg version="1.1" id="Layer_1" xmlns="http://www.w3.org/2000/svg" xmlns:xlink="http://www.w3.org/1999/xlink" x="0px" y="0px"
	 viewBox="0 0 792 612" style="enable-background:new 0 0 792 612;" xml:space="preserve">
<style type="text/css">
	.st0{fill:#FFFFFF;}
	.st1{clip-path:url(#SVGID_2_);fill-rule:evenodd;clip-rule:evenodd;fill:#00AA59;}
	.st2{fill:none;stroke:#000000;stroke-width:10;stroke-miterlimit:2.6131;}
	.st3{clip-path:url(#SVGID_4_);fill-rule:evenodd;clip-rule:evenodd;fill:#00AA59;}
	.st4{fill:#00AA59;}
</style>
<path class="st0" d="M-1332.9,232.9h-117.8v-39.6c0-24.9-1.1-40.6-3.3-46.9c-2.3-6.3-7.5-9.4-16-9.4c-7.4,0-12.2,2.7-14.9,8.1
	c-2.6,5.3-3.9,19.2-3.9,41.5v209.3c0,19.6,1.3,32.5,3.9,38.7c2.7,6.2,7.8,9.3,15.7,9.3c8.6,0,14.4-3.5,17.6-10.5
	c3.1-7.1,4.6-20.7,4.6-41v-51.7h-23.8v-66.3h137.9v234.2h-74.1l-10.9-31.3c-8,13.5-18.1,23.5-30.4,30.4
	c-12.2,6.7-26.7,10.1-43.3,10.1c-19.8,0-38.3-4.7-55.5-13.9c-17.3-9.3-30.4-20.7-39.4-34.4c-9-13.6-14.5-28-16.8-43
	c-2.2-15-3.3-37.5-3.3-67.5V229.4c0-41.7,2.3-71.9,7-90.8c4.7-18.9,18.1-36.2,40.2-51.9c22.1-15.7,50.6-23.6,85.8-23.6
	c34.5,0,63.1,6.8,85.9,20.5c22.7,13.6,37.6,29.9,44.5,48.7c6.9,18.8,10.3,46,10.3,81.8V232.9L-1332.9,232.9z M-1272.1,72.3h83.4
	c55.6,0,93.2,2,112.9,6.2c19.7,4.1,35.7,14.7,48.1,31.6c12.4,17,18.6,44.1,18.6,81.3c0,33.9-4.4,56.7-13.2,68.4
	c-8.7,11.7-26,18.7-51.8,21c23.3,5.6,39.1,13.1,47.1,22.4c7.9,9.3,13,17.8,14.9,25.7c2,7.8,3,29.3,3,64.6v115.1h-109.4V363.6
	c0-23.4-2-37.8-5.8-43.4c-3.8-5.5-13.9-8.4-30-8.4v196.7h-117.9V72.3L-1272.1,72.3z M-1154.3,146.9v97c13.2,0,22.4-1.7,27.8-5.2
	c5.3-3.5,8-14.9,8-34.1v-23.9c0-13.9-2.6-22.9-7.7-27.2C-1131.3,149.1-1140.7,146.9-1154.3,146.9L-1154.3,146.9z M-948.3,72.3h196.5
	v87.3h-78.6v82.7h73.6v83.1h-73.6v95.9h86.4v87.3h-204.3V72.3L-948.3,72.3z M-695,72.3h196.5v87.3h-78.6v82.7h73.6v83.1h-73.6v95.9
	h86.4v87.3H-695V72.3L-695,72.3z M-178.7,72.3v436.2h-103.3l-61.3-198.3v198.3h-98.5V72.3h98.5l66.1,196.5V72.3H-178.7L-178.7,72.3z
	 M-116.2,72.3H80.2v87.3H1.6v82.7h73.6v83.1H1.6v95.9h86.4v87.3h-204.3V72.3L-116.2,72.3z M137.1,72.3h83.4c55.6,0,93.2,2,112.9,6.2
	c19.7,4.1,35.7,14.7,48.1,31.6c12.4,17,18.6,44.1,18.6,81.3c0,33.9-4.4,56.7-13.2,68.4c-8.7,11.7-26,18.7-51.8,21
	c23.3,5.6,39.1,13.1,47.1,22.4c7.9,9.3,13,17.8,14.9,25.7c2,7.8,3,29.3,3,64.6v115.1H290.7V363.6c0-23.4-2-37.8-5.8-43.4
	c-3.8-5.5-13.9-8.4-30-8.4v196.7H137.1V72.3L137.1,72.3z M254.9,146.9v97c13.2,0,22.4-1.7,27.8-5.2c5.4-3.5,8-14.9,8-34.1v-23.9
	c0-13.9-2.6-22.9-7.7-27.2C277.8,149.1,268.5,146.9,254.9,146.9L254.9,146.9z"/>
<g>
	<defs>
		<path id="SVGID_1_" d="M-1332.9,232.9h-117.8v-39.6c0-24.9-1.1-40.6-3.3-46.9c-2.3-6.3-7.5-9.4-16-9.4c-7.4,0-12.2,2.7-14.9,8.1
			c-2.6,5.3-3.9,19.2-3.9,41.5v209.3c0,19.6,1.3,32.5,3.9,38.7c2.7,6.2,7.8,9.3,15.7,9.3c8.6,0,14.4-3.5,17.6-10.5
			c3.1-7.1,4.6-20.7,4.6-41v-51.7h-23.8v-66.3h137.9v234.2h-74.1l-10.9-31.3c-8,13.5-18.1,23.5-30.4,30.4
			c-12.2,6.7-26.7,10.1-43.3,10.1c-19.8,0-38.3-4.7-55.5-13.9c-17.3-9.3-30.4-20.7-39.4-34.4c-9-13.6-14.5-28-16.8-43
			c-2.2-15-3.3-37.5-3.3-67.5V229.4c0-41.7,2.3-71.9,7-90.8c4.7-18.9,18.1-36.2,40.2-51.9c22.1-15.7,50.6-23.6,85.8-23.6
			c34.5,0,63.1,6.8,85.9,20.5c22.7,13.6,37.6,29.9,44.5,48.7c6.9,18.8,10.3,46,10.3,81.8V232.9L-1332.9,232.9z M-1272.1,72.3h83.4
			c55.6,0,93.2,2,112.9,6.2c19.7,4.1,35.7,14.7,48.1,31.6c12.4,17,18.6,44.1,18.6,81.3c0,33.9-4.4,56.7-13.2,68.4
			c-8.7,11.7-26,18.7-51.8,21c23.3,5.6,39.1,13.1,47.1,22.4c7.9,9.3,13,17.8,14.9,25.7c2,7.8,3,29.3,3,64.6v115.1h-109.4V363.6
			c0-23.4-2-37.8-5.8-43.4c-3.8-5.5-13.9-8.4-30-8.4v196.7h-117.9V72.3L-1272.1,72.3z M-1154.3,146.9v97c13.2,0,22.4-1.7,27.8-5.2
			c5.3-3.5,8-14.9,8-34.1v-23.9c0-13.9-2.6-22.9-7.7-27.2C-1131.3,149.1-1140.7,146.9-1154.3,146.9L-1154.3,146.9z M-948.3,72.3
			h196.5v87.3h-78.6v82.7h73.6v83.1h-73.6v95.9h86.4v87.3h-204.3V72.3L-948.3,72.3z M-695,72.3h196.5v87.3h-78.6v82.7h73.6v83.1
			h-73.6v95.9h86.4v87.3H-695V72.3L-695,72.3z M-178.7,72.3v436.2h-103.3l-61.3-198.3v198.3h-98.5V72.3h98.5l66.1,196.5V72.3H-178.7
			L-178.7,72.3z M-116.2,72.3H80.2v87.3H1.6v82.7h73.6v83.1H1.6v95.9h86.4v87.3h-204.3V72.3L-116.2,72.3z M137.1,72.3h83.4
			c55.6,0,93.2,2,112.9,6.2c19.7,4.1,35.7,14.7,48.1,31.6c12.4,17,18.6,44.1,18.6,81.3c0,33.9-4.4,56.7-13.2,68.4
			c-8.7,11.7-26,18.7-51.8,21c23.3,5.6,39.1,13.1,47.1,22.4c7.9,9.3,13,17.8,14.9,25.7c2,7.8,3,29.3,3,64.6v115.1H290.7V363.6
			c0-23.4-2-37.8-5.8-43.4c-3.8-5.5-13.9-8.4-30-8.4v196.7H137.1V72.3L137.1,72.3z M254.9,146.9v97c13.2,0,22.4-1.7,27.8-5.2
			c5.4-3.5,8-14.9,8-34.1v-23.9c0-13.9-2.6-22.9-7.7-27.2C277.8,149.1,268.5,146.9,254.9,146.9L254.9,146.9z"/>
	</defs>
	<clipPath id="SVGID_2_">
		<use xlink:href="#SVGID_1_"  style="overflow:visible;"/>
	</clipPath>
	<path class="st1" d="M-1456.3,479c-4.7-6.3-9-13-13.4-19.4c-3.6-5.3-3.1-6-3.1-12c0-22,3.3-40.3,7-62c6.4,7.4,11.3,34.5,12.6,44.4
		C-1451.5,444.4-1451.6,465-1456.3,479L-1456.3,479z M-872.8,479.9c-1.2-7.3,0-27.5,5.7-32.6L-872.8,479.9L-872.8,479.9z
		 M-41.8,479.8c0.6-1.5-7-43.8-7.9-49.3c-2.2-12.9-2.4-11.1,8-21.7c4.9-5,13.6-13.2,19.8-16.9c-1.1,6.7-4.7,14.5-6.6,21.3
		C-35.4,437.9-37.4,455-41.8,479.8L-41.8,479.8z M-828,472.4c-0.7-9.1-3.1-18.3-4.3-27.4c-0.6-4.7-7.8-36.5-5.2-39.5
		c3.9-4.5,28.6-24.2,34-26.6c-0.6,6.1-5.9,16.3-7.9,22.8c-2.4,7.7-4.8,15.2-6.6,23c-1.8,7.7-3.7,15.7-5.3,23.5
		c-0.9,4.2-1.4,8.3-2.1,12.5l-1.6,10.3C-827.6,472.3-827.3,471.8-828,472.4L-828,472.4z M-1617.2,535.5v128.1H355.5V496
		c-2.9-3-1.6-9.6-1.9-13.5c-2.8-29.1-10.4-59-21.5-87.4c-6-15.5-12.9-30.8-21.3-45.6c-3.5-6.2-22.4-39.2-27.2-42.6
		c-0.7,0.6-0.6,1.2-0.4,2.1l2.4,6.7c3,9.2,6.1,18.1,8.2,27.6c2.8,13,5.3,25.8,7.1,39c1.4,10.9,4.9,75.8-2.3,81.9L274,290.6h-1.2
		c-3.2,17.2-5.1,35.1-7.4,52.3c-2.4,17.5-5,34.8-7.4,52.3l-11,78c-0.4,2.5-1.8,23.8-4.9,25.8c-3-6.1-12.2-57.4-14.4-68.2
		c-0.8-3.6-1.6-7.5-2.4-11.1c-0.5-2.2,0.2-9.6-3.3-10.7c-2.2,2.5-7.4,33-8.4,38.4c-1.2,5.9-6,34.7-8.8,37.7
		c-6-45.6-7.5-82.5-4.8-127.9c0.7-11.1,5.3-33.3,4.5-42c-10.6,6.3-39.2,107.7-41.1,109.4c-2.1-1.8-5.4-9.2-7-11.8
		c-11.9-18.9-25.5-37.1-42.6-55c-3.4-3.6-17.5-18-21.3-19.7c-0.1,2.4,7.4,12,9.3,15.1c3,4.8,6.2,9.9,8.9,15
		c11.3,21.8,20.3,44.3,22.8,66.9c0.6,5.6,4.2,33.7,1.1,36.8c-1.2-2-1.9-8.3-2.5-10.8c-12-45.6-47.6-88.8-103.4-125.5
		c-0.9-0.6-1.6-1.1-2.6-1.7c-2.1-1.2-0.7-0.8-3.1-1.2c1.5,2.5,6.3,6.4,9.1,9.2c37.6,38,57.6,80.9,51.3,123.5
		c-1.4,9.6-7.9,39.8-15.1,46.2c-4.1-26.3-10.8-51.3-15.9-77.3l-4-19.3c-0.3-1.7-0.2-4.5-2.1-5.9c-2.5,2.1-4.3,17.1-4.9,20.7
		c-3.6,20.8-8.6,41.3-12.9,62.1c-3.2-3.4-7.9-24.3-9.3-29.8c-5.3-21.5-8.3-43.1-9-64.9c-0.3-8.5-0.9-17.2-0.2-25.7
		c0.3-3.5,2.8-3.5,5.2-5.7c-3.1,0.3-1.6,0.3-4.9,1.1c-0.2-6.4,6.1-51,5.2-51.8c-5,3.8-21.8,39.6-25,46.9c-1.9,4.3-3.5,8.1-5.3,12.4
		c-3,7.2-2.4,5.3-10.6,9.7c-4.9,2.6-9.8,5.1-14.7,7.7c-3.3,1.8-10.3,6.8-14.9,7.5c-0.1-1.1-6.9-51.5-9.6-53.3
		c-2.5,2.2-9.1,53-10.6,60.5c-1.8,8.9-0.5,6.2-9,12.4c-9,6.5-17.3,13.5-25,20.5c-2.8,2.5-8.1,9.1-10.9,10.8
		c-1.4-1.7-3.6-10.1-4.4-12.5c-5.3-15.7-30.9-77.8-39.8-84.2c-1.2,0.9,4.9,30,5.6,34.1c1.8,11.7,2.4,23.8,3.4,35.8
		c0.2,2.9,0.8,68-4.8,72.7l-1.4-2.2c-2.3-6.6-4.2-21.2-5.7-28.2l-18.5-91.8c-3.4,2.1-5.1,19-5.6,21.5c-3.9,18.1-6.8,36.4-11,54.5
		c-0.4,1.8-0.7,3.5-1,5.4c-0.2,1.3-0.2,2.7-1.1,4c-0.6,0.9-0.5,0.7-1.4,1.2l0.7-129.2c-3.5,2.1-3.7,7.7-4.6,10.5
		c-7.7,24-14.7,48.2-23.5,72c-5.1,13.8-9,27.4-13.5,41.4c-2.6,8-8.9,30.6-12.4,38.4c0,0-0.7,1.2-0.7,1.2c-0.7,0.8-0.6,0.7-1.3,1.1
		l-25.5-150c-2.6,0.6-1.9,3-2.1,4.8c-1.6,12.8-4.1,25.3-6.4,38c-8,42.7-13.3,85.9-21.8,128.6l-4.1-12.5c-7.4-30.2-8.9-60.5-7.7-90.9
		c1.2-31.6,8.4-62.3,18.3-93.4c0.5-1.7,2.1-3.9,0.4-5.4c-17.1,26-32.6,53.2-43.6,80.3c-3.7,9-6.4,18.7-10.4,28.1
		c-9.1-7.5-6.4-19.7-7.1-29.7c-0.7-10.5-0.4-21.5-0.4-32.2c0-6.7,3.7-62.2,2.9-62.9c-2.7,1.9-13.9,35.3-15.5,40.6
		c-2.4,7.8-10.7,36.8-13.2,42c-2.5-1.4-10.8-10.3-13-12.5c-12.5-12.4-27.2-24.3-42.5-35.8c-10.7-8.1-21.2-15.2-32.3-22l-35-20.4
		h-1.5c1.6,2.4,10.9,8.6,14.3,11.4c27.4,22.2,42.3,37.5,61.9,61.1c7,8.4,13.2,18.1,18.6,27.1c5.9,9.8,10.3,19.4,14.6,29.5
		c2.9,6.8,3.9,8.7,2.4,16c-3.3,16.5-5.8,33.2-8.1,49.8c-0.7,5.3-1.9,31.8-4.1,34.2l-1.5-3c-0.3-1-0.4-2-0.6-3.1l-9.2-41.5
		c-1.1-5.6-8.9-45.5-11.3-47.4c-0.2,0.1-0.3,0.3-0.4,0.4c-0.1,0.1-0.3,0.3-0.3,0.4c-1.2,1.7-1.2,3.8-1.6,5.7l-21.9,98.1
		c-4.9-8.9-5.7-27.1-5.6-37.4c0.4-28.8,10.9-58,32-84.7c2.9-3.7,10-11.2,11.1-14.4c-8.3,2.7-31,24.3-37.5,30.9
		c-2.5,2.6-8.9,8.2-10.7,10.4l0.7-99.9c-3.5,1.8-15.3,34.7-17.6,40.3l-48.2,116.9c-0.5,1.2-1.5,3.6-2.9,4.6
		c-5.1-6.9-3.2-61.4-2.1-74.6c0.6-7.2,2.9-17.3,2.1-24.1c-6.6,3.6-26.3,53.8-30.1,64.4c-2.1,5.9-4.4,17.1-7.6,22.2
		c-5.4-5.5-41.3-123.8-46.3-128.5c-2.8,7.5,2.5,67.3-0.3,78.7c-2.4-2.4-5.3-10-7.1-13.2c-7.3-12.8-15.7-25.3-24.8-37.5
		c-5.2-7.1-35-41.7-42.8-45.2c-0.1,1.9,12.6,20.7,14.9,24.6c9.8,17.3,17.2,34.7,21.7,52.7c2.1,8.5,5.7,20.5,5,28.9
		c-8-21.3-23.7-43.2-40.3-61.2c-7.4-8-50.2-47.2-63.4-50.4c1.4,2.6,7.1,7.3,9.8,10c9.8,10,17.7,19.8,25.1,30.4
		c21.7,31.1,29.7,65.9,24.2,99c-1.6,9.7-10.9,41.1-18.7,47.6c-0.1-0.1-0.3-0.3-0.3-0.4c-0.1-0.1-0.2-0.3-0.3-0.4
		c-1-1.7-4.3-19.5-5.8-27c-1-4.9-15.3-81.1-18.2-82.9c-5.7,5.7-6.6,49.3-13,57.7c-2.2-12.1-5.6-24.1-7.4-36.5
		c-3.6-25.8-4.6-52.2-2-78c0.7-7.2,5.2-33.1,5-37.1c-5.4,2.7-23.3,41.6-24.3,44.1c-1.6,3.7-2.9,7.8-4.9,11.5
		c-1.4,2.5-22.1,11.9-27.2,14.5c-3.1,1.6-10.9,5.8-14.1,6.8l-5.8-35.2c-0.4-2-0.7-4-1-6c-0.2-1.5,0.1-3.8-1.7-4.9
		c-2.6,2.2-4.9,26-5.7,30.6c-0.9,5.3-1.7,10.3-2.7,15.6c-0.8,4.4,0.1,10.2-5.7,13.6c-15.5,9.2-30.1,19.5-41.4,30.5
		c-3.1,3-7.7,8.3-11.1,10.8c-2.6-9.3,2.7-72.5,1.8-73.2c-5.3,4-23.8,50.3-27.1,58.7c-7.9,20.3-14.6,42.1-18.7,63.1
		c-1.8-6.6-2-13.6-3.3-20.2c-1.2-6-4-14.9-3.4-20.6c1.5-13.1,5.6-26.7,11.2-39c8-17.5,19.6-34,34.6-50c1.9-2,13.9-13.5,14.4-14.9
		c-5.6,0.9-34.4,23.7-40.7,28.9c-9.5,7.8-17.7,16.4-25.7,24.7c-2.4,2.5-4.9,6.1-7.6,8.2c-3.5-4.9-7.5-17.9-10.2-23.8
		c-3.6-7.7-7.2-15.4-11.6-23.1c-1.9-3.4-22.2-40.6-28.1-43.8c-1.3,1.6,5.6,19.4,6.7,23.1c2.3,7.7,4.3,15.7,6,23.7
		c4.7,21.7,10.9,80.4,4.3,103.1c-2.3,7.9-4.8,16.2-5.6,24.4c-0.9,9.5-1.8,15.2-4.7,24.1c-6.6-25.3-24.2-163.6-29.3-168
		c-2,1.7-12.1,66.6-13.2,74.4c-1.8,12.5-4.8,25-6.3,37.5c-1.5,11.8-3.3,25.7-6.7,37.4c-10.7-27-17.9-55.1-27.5-82.2l-23.9-71.8
		c-0.9-2.7-0.6-8.4-4.7-9.9l0.6,102.7c-2.8-3.9-4.4-8-7-12.1c-7.4-11.8-15.6-23.3-25.3-34.7c-6.1-7.2-36.6-38.6-44.3-41.3l19.5,29
		c5.8,9.8,11.2,20.9,14.7,31.4c8,24.3,10.9,46.7,7.3,72.1c-2.5-4-3.3-12.9-4.5-17.7c-7.1-28-18.1-55.8-33-82.8
		c-4.9-8.9-11.6-22.4-18.4-30.5c-1.7,0.8-1-0.8-1.3,1.9c-0.3,2.8,2.9,12,3.5,14.8c1.3,5.5,2.2,11.2,3,16.7
		c3.9,27.3,6,78.2-3.8,104.5l-24-117.7l-0.7,0.6c-0.7,0.8-0.5-0.1-1,1.8c-3.7,13.3-5.4,28.6-8.3,41.9c-1.4,6.6-6.6,40.9-9.4,44.3
		c-1.6-15,2.6-129.1-0.1-131.5c-2.7,1.9-24.5,73.6-27.6,82.3c-2.3,6.6-24.5,78.8-26.9,82.3c-3.1-2.2-7-35-7.5-37.3
		c-2.3-12.7-4.1-24.9-6.3-37.5c-1.5-9-10.4-71.8-13-75c-1.9,0.9-1.8,3.2-2,4.8c-4,26.9-9.3,53.5-13.6,80.4
		c-4.5,28.4-9.9,56.9-14.5,85.5c-4.6-4.3-9.5-41.5-10.3-49.5c-4.2-42.7-1.2-86.2,10.8-128.6c1.9-6.6,6.8-16.9,7-23.3
		c-5.5,2.8-25.9,40.3-29.7,47.4c-4.3,8.1-8.3,16.4-11.9,24.9c-1.8,4.2-8.7,23.7-10.8,25.5l-1.6-1.4c-0.4-0.5-0.7-1-1-1.5
		c-7.8-13.2-17.1-26-28.8-38.5c-5.5-5.9-33.8-35.1-40.4-36.7c1.4,4.5,28,35.8,26.8,43.9c-0.7,4.3-24.7,38.7-24.2,44.6
		c-8.1-5-48.8-76.9-56.2-81c-0.8,5.1,7.1,34.5,9,41.5c3.8,13.3,7.1,27.9,9.6,41.3c2.4,13.6,6.6,27.5,9.8,41.2
		c3.7,15.8,7.2,24.9,0.2,41.2c-10-12.9-18.9-75.4-23.3-93.7c-1.2-5.3-2.3-10.9-3.2-16.2c-0.4-2.4-1.3-13.7-4.5-15.4l-3.2,13.3
		l-3.2-13.3c-4.9,3.1-7.5,48.3-12.8,55.7c-14.1-11.8,0.2-37.3-4.5-40.3l-9.8,19c-6.1-5-18.9-31.6-24.9-34.5c0.5,10,6,27.9,8.6,38.5
		c5.2,20.8,6.7,17.7,0.3,37.9c-6,19-9.8,38-13.2,57.2C-1615.2,520.3-1614.5,532.7-1617.2,535.5L-1617.2,535.5z"/>
</g>
<path class="st2" d="M-1332.9,232.9h-117.8v-39.6c0-24.9-1.1-40.6-3.3-46.9c-2.3-6.3-7.5-9.4-16-9.4c-7.4,0-12.2,2.7-14.9,8.1
	c-2.6,5.3-3.9,19.2-3.9,41.5v209.3c0,19.6,1.3,32.5,3.9,38.7c2.7,6.2,7.8,9.3,15.7,9.3c8.6,0,14.4-3.5,17.6-10.5
	c3.1-7.1,4.6-20.7,4.6-41v-51.7h-23.8v-66.3h137.9v234.2h-74.1l-10.9-31.3c-8,13.5-18.1,23.5-30.4,30.4
	c-12.2,6.7-26.7,10.1-43.3,10.1c-19.8,0-38.3-4.7-55.5-13.9c-17.3-9.3-30.4-20.7-39.4-34.4c-9-13.6-14.5-28-16.8-43
	c-2.2-15-3.3-37.5-3.3-67.5V229.4c0-41.7,2.3-71.9,7-90.8c4.7-18.9,18.1-36.2,40.2-51.9c22.1-15.7,50.6-23.6,85.8-23.6
	c34.5,0,63.1,6.8,85.9,20.5c22.7,13.6,37.6,29.9,44.5,48.7c6.9,18.8,10.3,46,10.3,81.8V232.9L-1332.9,232.9z M-1272.1,72.3h83.4
	c55.6,0,93.2,2,112.9,6.2c19.7,4.1,35.7,14.7,48.1,31.6c12.4,17,18.6,44.1,18.6,81.3c0,33.9-4.4,56.7-13.2,68.4
	c-8.7,11.7-26,18.7-51.8,21c23.3,5.6,39.1,13.1,47.1,22.4c7.9,9.3,13,17.8,14.9,25.7c2,7.8,3,29.3,3,64.6v115.1h-109.4V363.6
	c0-23.4-2-37.8-5.8-43.4c-3.8-5.5-13.9-8.4-30-8.4v196.7h-117.9V72.3L-1272.1,72.3z M-1154.3,146.9v97c13.2,0,22.4-1.7,27.8-5.2
	c5.3-3.5,8-14.9,8-34.1v-23.9c0-13.9-2.6-22.9-7.7-27.2C-1131.3,149.1-1140.7,146.9-1154.3,146.9L-1154.3,146.9z M-948.3,72.3h196.5
	v87.3h-78.6v82.7h73.6v83.1h-73.6v95.9h86.4v87.3h-204.3V72.3L-948.3,72.3z M-695,72.3h196.5v87.3h-78.6v82.7h73.6v83.1h-73.6v95.9
	h86.4v87.3H-695V72.3L-695,72.3z M-178.7,72.3v436.2h-103.3l-61.3-198.3v198.3h-98.5V72.3h98.5l66.1,196.5V72.3H-178.7L-178.7,72.3z
	 M-116.2,72.3H80.2v87.3H1.6v82.7h73.6v83.1H1.6v95.9h86.4v87.3h-204.3V72.3L-116.2,72.3z M137.1,72.3h83.4c55.6,0,93.2,2,112.9,6.2
	c19.7,4.1,35.7,14.7,48.1,31.6c12.4,17,18.6,44.1,18.6,81.3c0,33.9-4.4,56.7-13.2,68.4c-8.7,11.7-26,18.7-51.8,21
	c23.3,5.6,39.1,13.1,47.1,22.4c7.9,9.3,13,17.8,14.9,25.7c2,7.8,3,29.3,3,64.6v115.1H290.7V363.6c0-23.4-2-37.8-5.8-43.4
	c-3.8-5.5-13.9-8.4-30-8.4v196.7H137.1V72.3L137.1,72.3z M254.9,146.9v97c13.2,0,22.4-1.7,27.8-5.2c5.4-3.5,8-14.9,8-34.1v-23.9
	c0-13.9-2.6-22.9-7.7-27.2C277.8,149.1,268.5,146.9,254.9,146.9L254.9,146.9z"/>
<path class="st0" d="M615.9,72.3v436.2H498V72.3H615.9L615.9,72.3z M1041.9,72.3v436.2h-103V214l-41.2,294.5h-73.1l-43.4-287.8
	v287.8h-103V72.3h152.5c4.5,26.2,9.2,57.1,14.2,92.7l16.2,111l26.8-203.7H1041.9L1041.9,72.3z M1307.8,72.3l67.4,436.2h-120.6
	l-5.8-78.5h-42.3l-7,78.5h-122l59.9-436.2H1307.8L1307.8,72.3z M1245.4,352.8c-6-49.4-11.9-110.5-18-183
	c-11.9,83.4-19.4,144.4-22.4,183H1245.4L1245.4,352.8z M1680.8,232.9h-117.8v-39.6c0-24.9-1.1-40.6-3.3-46.9
	c-2.3-6.3-7.5-9.4-16-9.4c-7.4,0-12.2,2.7-14.9,8.1c-2.6,5.3-3.9,19.2-3.9,41.5v209.3c0,19.6,1.3,32.5,3.9,38.7
	c2.7,6.2,7.8,9.3,15.7,9.3c8.6,0,14.4-3.5,17.6-10.5c3.1-7.1,4.6-20.7,4.6-41v-51.7h-23.8v-66.3h137.9v234.2h-74.1l-10.9-31.3
	c-8,13.5-18.1,23.5-30.4,30.4c-12.2,6.7-26.7,10.1-43.3,10.1c-19.8,0-38.3-4.7-55.5-13.9c-17.3-9.3-30.4-20.7-39.4-34.4
	c-9-13.6-14.5-28-16.8-43c-2.2-15-3.3-37.5-3.3-67.5V229.4c0-41.7,2.3-71.9,7-90.8c4.7-18.9,18.1-36.2,40.2-51.9
	c22.1-15.7,50.6-23.6,85.8-23.6c34.5,0,63.1,6.8,85.9,20.5c22.7,13.6,37.6,29.9,44.5,48.7c6.9,18.8,10.3,46,10.3,81.8V232.9
	L1680.8,232.9z M1741.7,72.3h196.5v87.3h-78.6v82.7h73.6v83.1h-73.6v95.9h86.4v87.3h-204.3V72.3L1741.7,72.3z M2244.6,204.3h-109.4
	V172c0-15.1-1.4-24.7-4.2-28.9c-2.8-4.1-7.4-6.2-14-6.2c-7.1,0-12.4,2.8-16,8.4c-3.6,5.5-5.4,14-5.4,25.3c0,14.5,2,25.6,6.1,32.9
	c3.9,7.4,15.1,16.2,33.3,26.7c52.4,30,85.4,54.5,99.1,73.8c13.7,19.2,20.4,50.2,20.4,93c0,31.1-3.8,54-11.4,68.7
	c-7.5,14.7-22.2,27.1-43.7,37.1c-21.7,9.9-46.8,15-75.6,15c-31.5,0-58.5-5.8-80.7-17.3c-22.4-11.5-37-26.1-43.8-43.9
	c-6.9-17.8-10.3-43-10.3-75.8v-28.5h109.4v53.1c0,16.4,1.5,26.9,4.6,31.5c3.2,4.6,8.6,7,16.4,7c7.8,0,13.7-2.9,17.5-8.9
	c3.8-5.9,5.7-14.7,5.7-26.4c0-25.7-3.6-42.5-10.9-50.4c-7.4-7.9-25.9-21.1-55.1-39.5c-29.3-18.8-48.7-32.3-58.3-40.7
	c-9.5-8.5-17.4-20.1-23.6-35c-6.3-14.9-9.4-33.9-9.4-57.1c0-33.4,4.4-57.8,13.3-73.3c8.8-15.5,23.1-27.5,42.9-36.2
	c19.8-8.6,43.7-13.1,71.6-13.1c30.7,0,56.7,4.8,78.2,14.3c21.6,9.6,35.8,21.5,42.9,36.1c7,14.4,10.4,39,10.4,73.7V204.3
	L2244.6,204.3z"/>
<g>
	<defs>
		<path id="SVGID_3_" d="M615.9,72.3v436.2H498V72.3H615.9L615.9,72.3z M1041.9,72.3v436.2h-103V214l-41.2,294.5h-73.1l-43.4-287.8
			v287.8h-103V72.3h152.5c4.5,26.2,9.2,57.1,14.2,92.7l16.2,111l26.8-203.7H1041.9L1041.9,72.3z M1307.8,72.3l67.4,436.2h-120.6
			l-5.8-78.5h-42.3l-7,78.5h-122l59.9-436.2H1307.8L1307.8,72.3z M1245.4,352.8c-6-49.4-11.9-110.5-18-183
			c-11.9,83.4-19.4,144.4-22.4,183H1245.4L1245.4,352.8z M1680.8,232.9h-117.8v-39.6c0-24.9-1.1-40.6-3.3-46.9
			c-2.3-6.3-7.5-9.4-16-9.4c-7.4,0-12.2,2.7-14.9,8.1c-2.6,5.3-3.9,19.2-3.9,41.5v209.3c0,19.6,1.3,32.5,3.9,38.7
			c2.7,6.2,7.8,9.3,15.7,9.3c8.6,0,14.4-3.5,17.6-10.5c3.1-7.1,4.6-20.7,4.6-41v-51.7h-23.8v-66.3h137.9v234.2h-74.1l-10.9-31.3
			c-8,13.5-18.1,23.5-30.4,30.4c-12.2,6.7-26.7,10.1-43.3,10.1c-19.8,0-38.3-4.7-55.5-13.9c-17.3-9.3-30.4-20.7-39.4-34.4
			c-9-13.6-14.5-28-16.8-43c-2.2-15-3.3-37.5-3.3-67.5V229.4c0-41.7,2.3-71.9,7-90.8c4.7-18.9,18.1-36.2,40.2-51.9
			c22.1-15.7,50.6-23.6,85.8-23.6c34.5,0,63.1,6.8,85.9,20.5c22.7,13.6,37.6,29.9,44.5,48.7c6.9,18.8,10.3,46,10.3,81.8V232.9
			L1680.8,232.9z M1741.7,72.3h196.5v87.3h-78.6v82.7h73.6v83.1h-73.6v95.9h86.4v87.3h-204.3V72.3L1741.7,72.3z M2244.6,204.3
			h-109.4V172c0-15.1-1.4-24.7-4.2-28.9c-2.8-4.1-7.4-6.2-14-6.2c-7.1,0-12.4,2.8-16,8.4c-3.6,5.5-5.4,14-5.4,25.3
			c0,14.5,2,25.6,6.1,32.9c3.9,7.4,15.1,16.2,33.3,26.7c52.4,30,85.4,54.5,99.1,73.8c13.7,19.2,20.4,50.2,20.4,93
			c0,31.1-3.8,54-11.4,68.7c-7.5,14.7-22.2,27.1-43.7,37.1c-21.7,9.9-46.8,15-75.6,15c-31.5,0-58.5-5.8-80.7-17.3
			c-22.4-11.5-37-26.1-43.8-43.9c-6.9-17.8-10.3-43-10.3-75.8v-28.5h109.4v53.1c0,16.4,1.5,26.9,4.6,31.5c3.2,4.6,8.6,7,16.4,7
			c7.8,0,13.7-2.9,17.5-8.9c3.8-5.9,5.7-14.7,5.7-26.4c0-25.7-3.6-42.5-10.9-50.4c-7.4-7.9-25.9-21.1-55.1-39.5
			c-29.3-18.8-48.7-32.3-58.3-40.7c-9.5-8.5-17.4-20.1-23.6-35c-6.3-14.9-9.4-33.9-9.4-57.1c0-33.4,4.4-57.8,13.3-73.3
			c8.8-15.5,23.1-27.5,42.9-36.2c19.8-8.6,43.7-13.1,71.6-13.1c30.7,0,56.7,4.8,78.2,14.3c21.6,9.6,35.8,21.5,42.9,36.1
			c7,14.4,10.4,39,10.4,73.7V204.3L2244.6,204.3z"/>
	</defs>
	<clipPath id="SVGID_4_">
		<use xlink:href="#SVGID_3_"  style="overflow:visible;"/>
	</clipPath>
	<path class="st3" d="M633,479c-4.2-6.3-8-13-11.9-19.4c-3.3-5.3-2.8-6-2.8-12c0-22,2.9-40.3,6.2-62c5.7,7.4,10.1,34.5,11.2,44.4
		C637.3,444.4,637.2,465,633,479L633,479z M1153.2,479.9c-1-7.3,0-27.5,5.1-32.5L1153.2,479.9L1153.2,479.9z M1894.2,479.8
		c0.5-1.5-6.2-43.8-7.1-49.3c-1.9-12.9-2.1-11.1,7.2-21.7c4.4-5,12.1-13.2,17.7-16.9c-0.9,6.7-4.2,14.5-5.9,21.3
		C1899.9,437.9,1898.1,455,1894.2,479.8L1894.2,479.8z M1193.2,472.4c-0.6-9.1-2.8-18.3-3.9-27.4c-0.6-4.7-7-36.5-4.6-39.5
		c3.5-4.5,25.5-24.2,30.3-26.6c-0.5,6.1-5.3,16.3-7.1,22.8c-2.1,7.7-4.3,15.2-5.9,23c-1.6,7.7-3.3,15.7-4.7,23.5
		c-0.8,4.2-1.2,8.3-1.8,12.5l-1.5,10.3C1193.5,472.3,1193.8,471.8,1193.2,472.4L1193.2,472.4z M489.6,535.5v128.1h1758.8V496
		c-2.6-3-1.4-9.6-1.7-13.5c-2.5-29.1-9.3-59-19.1-87.4c-5.4-15.5-11.5-30.8-19-45.6c-3.1-6.2-20-39.2-24.3-42.6
		c-0.6,0.6-0.6,1.2-0.4,2.1l2.1,6.7c2.6,9.2,5.5,18.1,7.3,27.6c2.5,13,4.7,25.8,6.3,39c1.3,10.9,4.4,75.8-2,81.9l-21.9-173.7h-1.1
		c-2.8,17.2-4.6,35.1-6.6,52.3c-2.1,17.4-4.5,34.8-6.6,52.3l-9.8,78c-0.3,2.5-1.6,23.8-4.4,25.8c-2.7-6.1-10.8-57.4-12.9-68.2
		c-0.7-3.6-1.4-7.5-2.1-11.1c-0.4-2.2,0.2-9.6-3-10.7c-1.9,2.5-6.6,33-7.5,38.4c-1,5.9-5.4,34.7-7.8,37.7
		c-5.3-45.6-6.6-82.5-4.3-127.9c0.6-11.1,4.7-33.3,4-42c-9.4,6.3-34.9,107.7-36.6,109.4c-1.9-1.8-4.8-9.2-6.3-11.8
		c-10.6-18.9-22.7-37.1-38-55c-3-3.6-15.6-18-19-19.7c0,2.4,6.6,12,8.3,15.1c2.6,4.8,5.5,9.9,7.9,15c10.1,21.8,18.1,44.3,20.3,66.9
		c0.6,5.6,3.8,33.7,1,36.8c-1.1-2-1.7-8.3-2.2-10.8c-10.7-45.6-42.5-88.8-92.2-125.5c-0.8-0.6-1.4-1.1-2.4-1.7
		c-1.9-1.2-0.6-0.8-2.8-1.2c1.3,2.5,5.7,6.4,8.1,9.2c33.5,38,51.3,80.9,45.8,123.5c-1.3,9.6-7,39.8-13.5,46.2
		c-3.6-26.3-9.6-51.3-14.2-77.3l-3.6-19.3c-0.3-1.7-0.1-4.5-1.9-5.9c-2.2,2.1-3.8,17.1-4.4,20.7c-3.2,20.8-7.7,41.3-11.5,62.1
		c-2.8-3.4-7.1-24.3-8.3-29.8c-4.7-21.5-7.4-43.1-8.1-64.9c-0.2-8.5-0.8-17.2-0.2-25.7c0.2-3.5,2.5-3.5,4.7-5.7
		c-2.7,0.3-1.4,0.3-4.3,1.1c-0.1-6.4,5.5-51,4.7-51.8c-4.5,3.8-19.4,39.6-22.3,46.9c-1.7,4.3-3.1,8.1-4.7,12.4
		c-2.7,7.2-2.1,5.3-9.5,9.7c-4.4,2.6-8.7,5.1-13.1,7.7c-2.9,1.8-9.2,6.8-13.3,7.5c-0.1-1.1-6.2-51.5-8.6-53.3
		c-2.2,2.2-8.1,53-9.4,60.5c-1.6,9-0.4,6.2-8,12.4c-8,6.5-15.4,13.5-22.3,20.5c-2.5,2.5-7.2,9.1-9.7,10.8
		c-1.3-1.7-3.2-10.1-3.9-12.5c-4.7-15.7-27.5-77.8-35.5-84.2c-1.1,0.9,4.4,30,5,34.1c1.6,11.7,2.2,23.8,3,35.8
		c0.2,2.9,0.7,68-4.3,72.7l-1.2-2.3c-2.1-6.6-3.8-21.2-5.1-28.2l-16.5-91.8c-3,2.1-4.5,19-5,21.5c-3.5,18.1-6.1,36.4-9.8,54.5
		c-0.4,1.8-0.6,3.5-0.9,5.4c-0.2,1.3-0.2,2.7-1,4c-0.6,0.9-0.5,0.7-1.2,1.2l0.6-129.2c-3.1,2.1-3.3,7.7-4.1,10.5
		c-6.8,24-13.1,48.2-21,72c-4.6,13.8-8,27.4-12,41.4c-2.3,8-7.9,30.6-11,38.4c0,0-0.6,1.2-0.6,1.2c-0.6,0.8-0.5,0.7-1.1,1.1
		l-22.7-150c-2.3,0.6-1.7,3-1.9,4.8c-1.4,12.8-3.6,25.3-5.7,38c-7.1,42.7-11.8,85.9-19.5,128.6l-3.7-12.5
		c-6.6-30.2-7.9-60.5-6.9-90.9c1.1-31.6,7.5-62.3,16.3-93.4c0.5-1.7,1.8-3.9,0.3-5.4c-15.2,26-29,53.2-38.9,80.3
		c-3.3,9-5.7,18.7-9.3,28.1c-8.1-7.5-5.7-19.7-6.3-29.7c-0.6-10.5-0.4-21.5-0.4-32.2c0-6.7,3.3-62.2,2.6-62.9
		c-2.4,1.9-12.4,35.3-13.9,40.6c-2.2,7.8-9.5,36.8-11.8,42c-2.2-1.4-9.6-10.3-11.6-12.5c-11.1-12.4-24.2-24.3-37.9-35.8
		c-9.5-8.1-18.9-15.2-28.8-22l-31.2-20.4h-1.3c1.4,2.4,9.7,8.6,12.7,11.4c24.4,22.2,37.7,37.5,55.2,61.1
		c6.3,8.4,11.7,18.1,16.6,27.1c5.2,9.8,9.2,19.4,13,29.5c2.6,6.8,3.5,8.7,2.2,16c-3,16.5-5.1,33.2-7.2,49.8
		c-0.7,5.3-1.7,31.8-3.7,34.2l-1.3-3c-0.2-1-0.4-2-0.6-3.1l-8.2-41.5c-1-5.6-8-45.5-10-47.4c-0.1,0.1-0.3,0.3-0.3,0.4
		c-0.1,0.1-0.2,0.3-0.3,0.4c-1.1,1.7-1,3.8-1.4,5.7l-19.5,98.1c-4.4-8.9-5.1-27.1-5-37.4c0.4-28.8,9.8-58,28.5-84.7
		c2.6-3.7,8.9-11.2,9.9-14.4c-7.4,2.7-27.6,24.3-33.4,30.9c-2.3,2.6-7.9,8.2-9.5,10.4l0.6-99.9c-3.2,1.8-13.6,34.7-15.7,40.3
		l-43,116.9c-0.4,1.2-1.3,3.6-2.6,4.6c-4.6-6.9-2.9-61.4-1.9-74.6c0.5-7.2,2.6-17.3,1.9-24.1c-5.9,3.6-23.4,53.8-26.8,64.4
		c-1.9,5.9-4,17.1-6.8,22.2c-4.8-5.5-36.8-123.8-41.3-128.5c-2.5,7.5,2.3,67.3-0.3,78.7c-2.1-2.4-4.7-10-6.4-13.2
		c-6.5-12.8-14-25.3-22.1-37.5c-4.7-7.1-31.2-41.7-38.2-45.2c-0.1,1.9,11.3,20.7,13.3,24.6c8.7,17.3,15.4,34.7,19.4,52.7
		c1.9,8.5,5.1,20.5,4.4,28.9c-7.1-21.3-21.1-43.2-35.9-61.2c-6.6-8-44.8-47.2-56.5-50.4c1.2,2.6,6.4,7.3,8.7,10
		c8.8,10,15.8,19.8,22.4,30.4c19.3,31.1,26.5,65.9,21.6,99c-1.4,9.7-9.7,41.1-16.7,47.6c-0.1-0.1-0.2-0.3-0.3-0.4
		c-0.1-0.1-0.2-0.3-0.3-0.4c-0.9-1.7-3.8-19.5-5.2-27c-0.9-4.9-13.6-81.1-16.2-82.9c-5.1,5.7-5.9,49.3-11.6,57.7
		c-2-12.1-5-24.1-6.6-36.5c-3.2-25.8-4.1-52.2-1.8-78c0.6-7.2,4.6-33.1,4.4-37.1c-4.9,2.7-20.8,41.6-21.7,44.1
		c-1.4,3.7-2.6,7.8-4.4,11.5c-1.3,2.5-19.7,11.9-24.3,14.5c-2.8,1.6-9.7,5.8-12.6,6.8l-5.2-35.2c-0.4-2-0.6-4-0.9-6
		c-0.2-1.5,0.1-3.8-1.5-4.9c-2.3,2.2-4.4,26-5.1,30.6c-0.8,5.3-1.5,10.3-2.4,15.6c-0.7,4.4,0.1,10.1-5,13.6
		c-13.8,9.2-26.8,19.5-36.9,30.5c-2.7,3-6.9,8.3-9.9,10.8c-2.3-9.3,2.4-72.5,1.6-73.2c-4.7,4-21.2,50.3-24.1,58.7
		c-7,20.3-13,42.1-16.7,63.1c-1.6-6.6-1.8-13.6-2.9-20.2c-1.1-6-3.6-14.9-3-20.6c1.3-13.1,5-26.7,10-39c7.1-17.5,17.5-34,30.8-50
		c1.7-2,12.4-13.5,12.8-14.9c-5,0.9-30.6,23.7-36.3,28.9c-8.5,7.8-15.8,16.4-22.9,24.7c-2.2,2.5-4.4,6.1-6.7,8.2
		c-3.1-4.9-6.7-17.9-9.1-23.8c-3.2-7.7-6.4-15.4-10.3-23c-1.7-3.4-19.8-40.6-25.1-43.8c-1.2,1.6,5,19.4,6,23.1
		c2.1,7.7,3.8,15.7,5.4,23.7c4.2,21.7,9.7,80.4,3.8,103.1c-2.1,7.9-4.3,16.2-5,24.4c-0.8,9.5-1.6,15.2-4.2,24.1
		c-5.9-25.3-21.6-163.6-26.1-168c-1.8,1.7-10.7,66.6-11.8,74.4c-1.6,12.5-4.2,25-5.6,37.5c-1.3,11.8-2.9,25.7-5.9,37.4
		c-9.5-27-16-55.1-24.5-82.2l-21.3-71.8c-0.8-2.7-0.5-8.4-4.2-9.9l0.6,102.7c-2.5-3.9-3.9-8-6.2-12.1c-6.6-11.8-13.9-23.3-22.5-34.8
		c-5.4-7.2-32.6-38.6-39.5-41.3l17.4,29c5.2,9.8,10,20.9,13.1,31.4c7.2,24.3,9.7,46.7,6.5,72.1c-2.3-4-3-12.9-4.1-17.7
		c-6.3-28-16.2-55.8-29.4-82.8c-4.4-8.9-10.3-22.4-16.4-30.5c-1.5,0.8-0.9-0.8-1.2,1.9c-0.3,2.8,2.6,12,3.2,14.8
		c1.2,5.5,1.9,11.2,2.6,16.7c3.5,27.3,5.3,78.2-3.4,104.5l-21.4-117.7l-0.6,0.6c-0.6,0.8-0.4-0.1-0.9,1.8
		c-3.3,13.3-4.8,28.6-7.4,41.9c-1.3,6.6-5.8,40.9-8.3,44.3c-1.5-14.9,2.3-129.1-0.1-131.5c-2.4,1.9-21.9,73.6-24.6,82.3
		c-2.1,6.6-21.9,78.8-24,82.3c-2.8-2.2-6.3-35-6.7-37.3c-2-12.7-3.7-24.9-5.6-37.5c-1.4-9-9.3-71.8-11.6-75
		c-1.7,0.9-1.6,3.2-1.8,4.8c-3.6,26.9-8.3,53.5-12.1,80.4c-4,28.4-8.9,56.9-12.9,85.5c-4.1-4.3-8.5-41.5-9.2-49.5
		c-3.7-42.7-1.1-86.2,9.6-128.6c1.7-6.6,6-16.9,6.3-23.3c-4.9,2.8-23.1,40.3-26.5,47.4c-3.8,8.1-7.4,16.4-10.6,24.9
		c-1.6,4.2-7.8,23.7-9.7,25.5l-1.4-1.4c-0.4-0.5-0.6-1-0.9-1.5c-7-13.2-15.2-26-25.7-38.5c-4.9-5.9-30.1-35.1-36-36.7
		c1.2,4.5,25,35.8,23.9,43.9c-0.6,4.3-22,38.7-21.6,44.6c-7.2-5-43.5-76.9-50.1-81c-0.7,5.1,6.3,34.5,8.1,41.5
		c3.4,13.3,6.4,27.9,8.5,41.3c2.2,13.6,5.9,27.5,8.7,41.2c3.3,15.8,6.4,24.9,0.1,41.2c-8.9-12.9-16.9-75.4-20.7-93.7
		c-1.1-5.3-2-10.9-2.9-16.2c-0.4-2.4-1.2-13.7-4-15.4l-2.9,13.3l-2.8-13.3c-4.4,3.1-6.7,48.3-11.4,55.7c-12.6-11.8,0.1-37.3-4-40.3
		l-8.7,19c-5.5-5-16.8-31.6-22.2-34.5c0.4,10,5.3,27.9,7.7,38.5c4.6,20.8,6,17.7,0.3,37.9c-5.4,19-8.7,38-11.8,57.2
		C491.3,520.3,492,532.7,489.6,535.5L489.6,535.5z"/>
</g>
<path class="st2" d="M615.9,72.3v436.2H498V72.3H615.9L615.9,72.3z M1041.9,72.3v436.2h-103V214l-41.2,294.5h-73.1l-43.4-287.8
	v287.8h-103V72.3h152.5c4.5,26.2,9.2,57.1,14.2,92.7l16.2,111l26.8-203.7H1041.9L1041.9,72.3z M1307.8,72.3l67.4,436.2h-120.6
	l-5.8-78.5h-42.3l-7,78.5h-122l59.9-436.2H1307.8L1307.8,72.3z M1245.4,352.8c-6-49.4-11.9-110.5-18-183
	c-11.9,83.4-19.4,144.4-22.4,183H1245.4L1245.4,352.8z M1680.8,232.9h-117.8v-39.6c0-24.9-1.1-40.6-3.3-46.9
	c-2.3-6.3-7.5-9.4-16-9.4c-7.4,0-12.2,2.7-14.9,8.1c-2.6,5.3-3.9,19.2-3.9,41.5v209.3c0,19.6,1.3,32.5,3.9,38.7
	c2.7,6.2,7.8,9.3,15.7,9.3c8.6,0,14.4-3.5,17.6-10.5c3.1-7.1,4.6-20.7,4.6-41v-51.7h-23.8v-66.3h137.9v234.2h-74.1l-10.9-31.3
	c-8,13.5-18.1,23.5-30.4,30.4c-12.2,6.7-26.7,10.1-43.3,10.1c-19.8,0-38.3-4.7-55.5-13.9c-17.3-9.3-30.4-20.7-39.4-34.4
	c-9-13.6-14.5-28-16.8-43c-2.2-15-3.3-37.5-3.3-67.5V229.4c0-41.7,2.3-71.9,7-90.8c4.7-18.9,18.1-36.2,40.2-51.9
	c22.1-15.7,50.6-23.6,85.8-23.6c34.5,0,63.1,6.8,85.9,20.5c22.7,13.6,37.6,29.9,44.5,48.7c6.9,18.8,10.3,46,10.3,81.8V232.9
	L1680.8,232.9z M1741.7,72.3h196.5v87.3h-78.6v82.7h73.6v83.1h-73.6v95.9h86.4v87.3h-204.3V72.3L1741.7,72.3z M2244.6,204.3h-109.4
	V172c0-15.1-1.4-24.7-4.2-28.9c-2.8-4.1-7.4-6.2-14-6.2c-7.1,0-12.4,2.8-16,8.4c-3.6,5.5-5.4,14-5.4,25.3c0,14.5,2,25.6,6.1,32.9
	c3.9,7.4,15.1,16.2,33.3,26.7c52.4,30,85.4,54.5,99.1,73.8c13.7,19.2,20.4,50.2,20.4,93c0,31.1-3.8,54-11.4,68.7
	c-7.5,14.7-22.2,27.1-43.7,37.1c-21.7,9.9-46.8,15-75.6,15c-31.5,0-58.5-5.8-80.7-17.3c-22.4-11.5-37-26.1-43.8-43.9
	c-6.9-17.8-10.3-43-10.3-75.8v-28.5h109.4v53.1c0,16.4,1.5,26.9,4.6,31.5c3.2,4.6,8.6,7,16.4,7c7.8,0,13.7-2.9,17.5-8.9
	c3.8-5.9,5.7-14.7,5.7-26.4c0-25.7-3.6-42.5-10.9-50.4c-7.4-7.9-25.9-21.1-55.1-39.5c-29.3-18.8-48.7-32.3-58.3-40.7
	c-9.5-8.5-17.4-20.1-23.6-35c-6.3-14.9-9.4-33.9-9.4-57.1c0-33.4,4.4-57.8,13.3-73.3c8.8-15.5,23.1-27.5,42.9-36.2
	c19.8-8.6,43.7-13.1,71.6-13.1c30.7,0,56.7,4.8,78.2,14.3c21.6,9.6,35.8,21.5,42.9,36.1c7,14.4,10.4,39,10.4,73.7V204.3
	L2244.6,204.3z"/>
<path d="M2396.8,72.3l0,14.7l-49.4,0.1l0.1,22.9l-16.1,0l-0.1-37.7L2396.8,72.3L2396.8,72.3z M2342.3,146l0-16.8l-10.8-2.3l0-15
	l65.6,17.8l0,16l-65.5,18l0-15.4L2342.3,146L2342.3,146z M2356.5,142.9l23.5-5.3l-23.6-5.2L2356.5,142.9L2356.5,142.9z M2397.1,164
	l0,14l-36.6,5.1l36.6,7.3l0,13.9l-36.6,7.4l36.6,5l0,13.9l-65.5-10.4l0-14.4l41.2-8.4l-41.3-8.2l0-14.4L2397.1,164L2397.1,164z
	 M2397.2,235.5l0,13.7l-36.2,18l36.2-0.1l0,13.9l-65.5,0.1l0-13.9l35.9-17.9l-36,0.1l0-13.8L2397.2,235.5L2397.2,235.5z"/>
<path d="M2358.8,344.7l-5.3,12.9c-5-0.9-9.1-2.2-12.5-4.1c-3.3-1.9-5.9-4.2-7.6-6.9c-1.7-2.8-2.6-6.3-2.6-10.5c0-5.2,1-9.4,3.1-12.7
	c2.1-3.3,5.7-6.1,10.9-8.5c5.2-2.4,11.9-3.6,20-3.6c10.8,0,19.2,2.1,25,6.2c5.8,4.2,8.8,10.1,8.8,17.8c0,6-1.6,10.7-5,14.1
	c-3.3,3.4-8.5,6-15.4,7.7l-4-13c2-0.5,3.5-0.9,4.4-1.4c1.5-0.8,2.7-1.8,3.6-3c0.8-1.2,1.2-2.5,1.2-4c0-3.3-1.9-5.9-5.6-7.6
	c-2.7-1.3-7.1-2-12.9-2c-7.3,0-12.2,0.8-14.9,2.4c-2.7,1.6-4,3.9-4,6.8c0,2.8,1.1,4.9,3.3,6.4C2351.5,343,2354.6,344,2358.8,344.7
	L2358.8,344.7z"/>
<path d="M2343,394l0-16.8l-10.8-2.3l0-15l65.6,17.8l0,16l-65.5,18l0-15.4L2343,394L2343,394z M2357.1,390.9l23.5-5.3l-23.6-5.2
	L2357.1,390.9L2357.1,390.9z"/>
<path d="M2332.2,416.7l65.5-0.1l0.1,24.5c0,4.5-0.5,8-1.6,10.4c-1.1,2.4-3,4.3-5.9,5.8c-2.9,1.5-6.4,2.2-10.6,2.2
	c-3.6,0-6.8-0.6-9.4-1.7c-2.6-1.1-4.8-2.7-6.4-4.6c-1-1.3-1.9-3-2.6-5.2c-0.8,1.8-1.6,3-2.4,3.8c-0.5,0.5-1.7,1.3-3.4,2.4
	c-1.8,1-3.1,1.7-4.1,2.1l-19,7.1l0-16.6l20-7.9c2.6-1,4.3-1.9,5-2.7c1-1.1,1.5-2.3,1.5-3.6l0-1.3l-26.6,0L2332.2,416.7L2332.2,416.7
	z M2371.2,431.4l0,6.2c0,0.7,0.3,2,0.9,3.9c0.3,1,1,1.8,2.1,2.4c1.1,0.6,2.4,0.9,3.8,0.9c2.1,0,3.7-0.5,4.9-1.5
	c1.1-1,1.7-2.8,1.7-5.5l0-6.5L2371.2,431.4L2371.2,431.4z"/>
<polygon points="2397.8,468 2397.9,507.4 2384,507.5 2383.9,482.8 2373.5,482.8 2373.5,505.7 2360.2,505.7 2360.1,482.8 
	2347.2,482.9 2347.3,508.2 2332.4,508.3 2332.3,468.1 2397.8,468 "/>
<polygon class="st4" points="2330.3,522.1 2337.9,522 2337.9,542 2349.7,542 2349.7,548.5 2330.4,548.5 2330.3,522.1 "/>
<polygon class="st4" points="2353.1,522 2360.6,522 2360.7,541.9 2372.5,541.9 2372.5,548.4 2353.1,548.5 2353.1,522 "/>
<path class="st4" d="M2391.6,537.6l6.6,2.2c-0.4,2-1.1,3.7-2.1,5c-1,1.4-2.1,2.4-3.6,3.1c-1.4,0.7-3.2,1-5.4,1
	c-2.7,0-4.8-0.4-6.5-1.2c-1.7-0.8-3.1-2.3-4.4-4.4c-1.2-2.1-1.8-4.8-1.8-8.1c0-4.4,1.1-7.8,3.2-10.1c2.1-2.4,5.2-3.5,9.1-3.5
	c3.1,0,5.5,0.7,7.3,2c1.8,1.3,3.1,3.4,3.9,6.2l-6.7,1.6c-0.2-0.8-0.5-1.4-0.7-1.8c-0.4-0.6-0.9-1.1-1.6-1.4
	c-0.6-0.3-1.3-0.5-2.1-0.5c-1.7,0-3,0.8-3.9,2.2c-0.7,1.1-1,2.8-1,5.2c0,2.9,0.4,4.9,1.2,6c0.8,1.1,2,1.6,3.5,1.6
	c1.4,0,2.5-0.4,3.3-1.3C2390.7,540.5,2391.2,539.3,2391.6,537.6L2391.6,537.6z"/>
</svg>
